<?xml version='1.0' encoding='ASCII'?>
<svg xmlns="http://www.w3.org/2000/svg" xmlns:xlink="http://www.w3.org/1999/xlink" width="4000" height="3326" viewBox="0 0 4000 3326" version="1.1">
<!--Creator: www.zenbusiness.com--><g id="surface1">
<path style=" stroke:none;fill-rule:nonzero;fill:rgb(23.137255%,61.960787%,24.313726%);fill-opacity:1;" d="M 2001.878906 1377.191406 C 1872.957031 1377.191406 1768.492188 1460.742188 1768.492188 1563.898438 C 1768.492188 1667.058594 1872.957031 1750.609375 2001.878906 1750.609375 C 2130.804688 1750.609375 2235.265625 1667.058594 2235.265625 1563.898438 C 2235.265625 1460.742188 2130.804688 1377.191406 2001.878906 1377.191406 Z M 2107.835938 1601.613281 L 2013.828125 1490.804688 L 1968.367188 1544.296875 L 2036.234375 1624.300781 L 1958.84375 1624.300781 L 1889.105469 1542.148438 L 1818.996094 1624.300781 L 1797.152344 1624.300781 L 1889.105469 1516.007812 L 1944.375 1516.007812 L 1954.269531 1527.585938 L 2013.828125 1457.476562 L 2084.40625 1457.476562 L 2206.699219 1601.613281 Z M 2107.835938 1601.613281 "/>
<path style=" stroke:none;fill-rule:nonzero;fill:rgb(23.137255%,61.960787%,24.313726%);fill-opacity:1;" d="M 401.109375 1951.953125 L 430.953125 1951.953125 C 430.953125 1956.523438 431.941406 1959.972656 433.976562 1962.339844 C 435.984375 1964.707031 438.613281 1965.890625 441.867188 1965.890625 C 444.925781 1965.890625 447.519531 1964.839844 449.625 1962.734375 C 451.726562 1960.566406 452.78125 1957.96875 452.78125 1954.976562 L 452.78125 1852.027344 L 483.019531 1852.027344 L 483.019531 1954.847656 C 483.019531 1966.253906 478.976562 1975.980469 470.925781 1984.035156 C 462.9375 1992.023438 453.238281 1996 441.867188 1996 C 430.035156 1996 420.238281 1992.152344 412.546875 1984.429688 C 404.921875 1976.640625 401.109375 1965.824219 401.109375 1951.953125 Z M 642.964844 1956.820312 L 610.621094 1956.820312 L 601.417969 1938.804688 L 595.105469 1938.804688 C 591.589844 1938.804688 588.566406 1940.121094 586.035156 1942.75 C 583.472656 1945.3125 582.222656 1948.339844 582.222656 1951.824219 C 582.222656 1955.339844 583.472656 1958.363281 586.035156 1960.894531 C 588.566406 1963.457031 591.589844 1964.707031 595.105469 1964.707031 L 655.71875 1964.707031 L 655.71875 1993.371094 L 592.871094 1993.371094 C 581.730469 1993.371094 572.132812 1989.261719 564.078125 1981.011719 C 556.089844 1972.695312 552.113281 1962.867188 552.113281 1951.558594 C 552.113281 1941.5 555.433594 1932.625 562.105469 1925 C 568.746094 1917.375 577.09375 1912.839844 587.085938 1911.328125 L 555.925781 1852.027344 L 642.175781 1852.027344 L 642.175781 1878.195312 L 602.207031 1878.195312 Z M 725.601562 1993.371094 L 725.601562 1852.027344 L 812.773438 1852.027344 L 812.773438 1881.480469 L 755.839844 1881.480469 L 755.839844 1901.730469 L 810.144531 1901.730469 L 810.144531 1930.785156 L 755.839844 1930.785156 L 755.839844 1963.65625 L 813.824219 1963.65625 L 813.824219 1993.371094 Z M 987.574219 1900.941406 C 987.574219 1914.546875 982.84375 1926.050781 973.375 1935.519531 C 963.972656 1944.984375 952.535156 1949.71875 939.058594 1949.71875 L 917.628906 1949.71875 L 917.628906 1993.371094 L 887.386719 1993.371094 L 887.386719 1852.027344 L 939.058594 1852.027344 C 952.535156 1852.027344 963.972656 1856.828125 973.375 1866.359375 C 982.84375 1875.925781 987.574219 1887.464844 987.574219 1900.941406 Z M 956.675781 1900.941406 C 956.675781 1895.089844 954.707031 1890.125 950.761719 1886.082031 C 946.882812 1881.972656 942.117188 1879.902344 936.429688 1879.902344 L 917.628906 1879.902344 L 917.628906 1921.714844 L 936.429688 1921.714844 C 942.90625 1921.714844 947.902344 1919.808594 951.417969 1915.929688 C 954.902344 1912.082031 956.675781 1907.085938 956.675781 1900.941406 Z M 1110.441406 1904.09375 C 1110.441406 1912.707031 1108.667969 1919.871094 1105.183594 1925.65625 C 1101.765625 1931.378906 1096.964844 1936.636719 1090.851562 1941.4375 C 1098.480469 1947.15625 1103.640625 1953.335938 1106.367188 1959.972656 C 1109.0625 1966.648438 1110.441406 1974.140625 1110.441406 1982.457031 L 1110.441406 1993.371094 L 1080.203125 1993.371094 L 1080.203125 1982.457031 C 1080.203125 1974.832031 1077.835938 1968.390625 1073.101562 1963.128906 C 1068.433594 1957.871094 1062.355469 1955.242188 1054.828125 1955.242188 L 1036.15625 1955.242188 L 1036.15625 1993.371094 L 1005.917969 1993.371094 L 1005.917969 1852.027344 L 1058.246094 1852.027344 C 1072.609375 1852.027344 1084.871094 1857.125 1095.058594 1867.28125 C 1105.316406 1877.46875 1110.441406 1889.730469 1110.441406 1904.09375 Z M 1079.546875 1904.09375 C 1079.546875 1897.355469 1077.179688 1891.671875 1072.445312 1887.003906 C 1067.777344 1882.269531 1062.089844 1879.902344 1055.351562 1879.902344 L 1036.15625 1879.902344 L 1036.15625 1928.15625 L 1055.351562 1928.15625 C 1061.925781 1928.15625 1067.582031 1925.789062 1072.3125 1921.054688 C 1077.113281 1916.324219 1079.546875 1910.667969 1079.546875 1904.09375 Z M 1122.636719 1922.898438 C 1122.636719 1902.582031 1129.640625 1885.261719 1143.675781 1870.960938 C 1157.777344 1856.695312 1174.867188 1849.53125 1194.953125 1849.53125 C 1215.003906 1849.53125 1232.09375 1856.695312 1246.230469 1870.960938 C 1260.332031 1885.261719 1267.398438 1902.582031 1267.398438 1922.898438 C 1267.398438 1943.078125 1260.332031 1960.304688 1246.230469 1974.570312 C 1232.195312 1988.867188 1215.132812 1996 1195.082031 1996 C 1175 1996 1157.90625 1988.867188 1143.804688 1974.570312 C 1129.671875 1960.304688 1122.636719 1943.078125 1122.636719 1922.898438 Z M 1166.15625 1892.128906 C 1158.269531 1900.644531 1154.324219 1910.898438 1154.324219 1922.898438 C 1154.324219 1934.925781 1158.300781 1945.183594 1166.289062 1953.664062 C 1174.34375 1962.078125 1183.941406 1966.285156 1195.082031 1966.285156 C 1206.292969 1966.285156 1215.859375 1962.046875 1223.746094 1953.53125 C 1231.699219 1944.953125 1235.710938 1934.730469 1235.710938 1922.898438 C 1235.710938 1911.0625 1231.667969 1900.875 1223.613281 1892.261719 C 1215.628906 1883.585938 1206.027344 1879.246094 1194.820312 1879.246094 C 1183.675781 1879.246094 1174.113281 1883.550781 1166.15625 1892.128906 Z M 1285.835938 1993.371094 L 1285.835938 1852.027344 L 1373.007812 1852.027344 L 1373.007812 1881.480469 L 1316.078125 1881.480469 L 1316.078125 1904.753906 L 1370.378906 1904.753906 L 1370.378906 1933.546875 L 1316.078125 1933.546875 L 1316.078125 1993.371094 Z M 1396.90625 1993.371094 L 1396.90625 1852.027344 L 1484.078125 1852.027344 L 1484.078125 1881.480469 L 1427.144531 1881.480469 L 1427.144531 1901.730469 L 1481.445312 1901.730469 L 1481.445312 1930.785156 L 1427.144531 1930.785156 L 1427.144531 1963.65625 L 1485.128906 1963.65625 L 1485.128906 1993.371094 Z M 1543.472656 1907.515625 L 1562.667969 1907.515625 C 1574.402344 1907.515625 1584.394531 1911.722656 1592.648438 1920.136719 C 1600.960938 1928.484375 1605.136719 1938.410156 1605.136719 1949.980469 C 1605.136719 1961.652344 1600.960938 1971.808594 1592.648438 1980.484375 C 1584.394531 1989.097656 1574.402344 1993.371094 1562.667969 1993.371094 L 1506.789062 1993.371094 L 1506.789062 1963.65625 L 1559.511719 1963.65625 C 1563.523438 1963.65625 1566.910156 1962.40625 1569.636719 1959.84375 C 1572.429688 1957.3125 1573.84375 1954.125 1573.84375 1950.246094 C 1573.84375 1946.300781 1572.429688 1943.078125 1569.636719 1940.515625 C 1566.910156 1937.886719 1563.523438 1936.570312 1559.511719 1936.570312 L 1541.238281 1936.570312 C 1529.667969 1936.570312 1519.839844 1932.363281 1511.785156 1923.949219 C 1503.699219 1915.46875 1499.691406 1905.410156 1499.691406 1893.839844 C 1499.691406 1882.367188 1503.699219 1872.539062 1511.785156 1864.386719 C 1519.839844 1856.171875 1529.667969 1852.027344 1541.238281 1852.027344 L 1588.308594 1852.027344 L 1588.308594 1880.824219 L 1543.472656 1880.824219 C 1539.691406 1880.824219 1536.539062 1882.136719 1534.007812 1884.769531 C 1531.441406 1887.332031 1530.195312 1890.488281 1530.195312 1894.234375 C 1530.195312 1898.015625 1531.441406 1901.171875 1534.007812 1903.699219 C 1536.539062 1906.265625 1539.691406 1907.515625 1543.472656 1907.515625 Z M 1651.746094 1907.515625 L 1670.941406 1907.515625 C 1682.675781 1907.515625 1692.671875 1911.722656 1700.921875 1920.136719 C 1709.238281 1928.484375 1713.410156 1938.410156 1713.410156 1949.980469 C 1713.410156 1961.652344 1709.238281 1971.808594 1700.921875 1980.484375 C 1692.671875 1989.097656 1682.675781 1993.371094 1670.941406 1993.371094 L 1615.0625 1993.371094 L 1615.0625 1963.65625 L 1667.789062 1963.65625 C 1671.796875 1963.65625 1675.183594 1962.40625 1677.910156 1959.84375 C 1680.707031 1957.3125 1682.117188 1954.125 1682.117188 1950.246094 C 1682.117188 1946.300781 1680.707031 1943.078125 1677.910156 1940.515625 C 1675.183594 1937.886719 1671.796875 1936.570312 1667.789062 1936.570312 L 1649.511719 1936.570312 C 1637.941406 1936.570312 1628.113281 1932.363281 1620.058594 1923.949219 C 1611.972656 1915.46875 1607.964844 1905.410156 1607.964844 1893.839844 C 1607.964844 1882.367188 1611.972656 1872.539062 1620.058594 1864.386719 C 1628.113281 1856.171875 1637.941406 1852.027344 1649.511719 1852.027344 L 1696.582031 1852.027344 L 1696.582031 1880.824219 L 1651.746094 1880.824219 C 1647.964844 1880.824219 1644.8125 1882.136719 1642.28125 1884.769531 C 1639.714844 1887.332031 1638.46875 1890.488281 1638.46875 1894.234375 C 1638.46875 1898.015625 1639.714844 1901.171875 1642.28125 1903.699219 C 1644.8125 1906.265625 1647.964844 1907.515625 1651.746094 1907.515625 Z M 1731.554688 1993.371094 L 1731.554688 1852.027344 L 1761.796875 1852.027344 L 1761.796875 1993.371094 Z M 1780.203125 1922.898438 C 1780.203125 1902.582031 1787.203125 1885.261719 1801.238281 1870.960938 C 1815.339844 1856.695312 1832.433594 1849.53125 1852.515625 1849.53125 C 1872.566406 1849.53125 1889.660156 1856.695312 1903.792969 1870.960938 C 1917.894531 1885.261719 1924.960938 1902.582031 1924.960938 1922.898438 C 1924.960938 1943.078125 1917.894531 1960.304688 1903.792969 1974.570312 C 1889.757812 1988.867188 1872.699219 1996 1852.648438 1996 C 1832.566406 1996 1815.472656 1988.867188 1801.371094 1974.570312 C 1787.238281 1960.304688 1780.203125 1943.078125 1780.203125 1922.898438 Z M 1823.722656 1892.128906 C 1815.832031 1900.644531 1811.890625 1910.898438 1811.890625 1922.898438 C 1811.890625 1934.925781 1815.867188 1945.183594 1823.855469 1953.664062 C 1831.90625 1962.078125 1841.503906 1966.285156 1852.648438 1966.285156 C 1863.855469 1966.285156 1873.421875 1962.046875 1881.3125 1953.53125 C 1889.265625 1944.953125 1893.277344 1934.730469 1893.277344 1922.898438 C 1893.277344 1911.0625 1889.234375 1900.875 1881.179688 1892.261719 C 1873.191406 1883.585938 1863.59375 1879.246094 1852.386719 1879.246094 C 1841.242188 1879.246094 1831.675781 1883.550781 1823.722656 1892.128906 Z M 1942.351562 1993.371094 L 1942.351562 1852.027344 L 1968.253906 1852.027344 L 2026.628906 1914.613281 L 2026.628906 1852.027344 L 2055.6875 1852.027344 L 2055.6875 1996 L 1971.40625 1901.859375 L 1971.40625 1993.371094 Z M 2150.1875 1966.941406 L 2109.824219 1966.941406 L 2098.515625 1993.371094 L 2066.433594 1993.371094 L 2129.808594 1849.398438 L 2193.183594 1993.371094 L 2161.101562 1993.371094 Z M 2139.933594 1939.859375 L 2129.808594 1915.402344 L 2120.078125 1939.859375 Z M 2206.953125 1993.371094 L 2206.953125 1852.027344 L 2237.195312 1852.027344 L 2237.195312 1965.101562 L 2290.574219 1965.101562 L 2290.574219 1993.371094 Z M 2395.136719 1907.515625 L 2414.332031 1907.515625 C 2426.066406 1907.515625 2436.058594 1911.722656 2444.308594 1920.136719 C 2452.625 1928.484375 2456.800781 1938.410156 2456.800781 1949.980469 C 2456.800781 1961.652344 2452.625 1971.808594 2444.308594 1980.484375 C 2436.058594 1989.097656 2426.066406 1993.371094 2414.332031 1993.371094 L 2358.453125 1993.371094 L 2358.453125 1963.65625 L 2411.175781 1963.65625 C 2415.1875 1963.65625 2418.570312 1962.40625 2421.300781 1959.84375 C 2424.09375 1957.3125 2425.507812 1954.125 2425.507812 1950.246094 C 2425.507812 1946.300781 2424.09375 1943.078125 2421.300781 1940.515625 C 2418.570312 1937.886719 2415.1875 1936.570312 2411.175781 1936.570312 L 2392.898438 1936.570312 C 2381.328125 1936.570312 2371.5 1932.363281 2363.449219 1923.949219 C 2355.363281 1915.46875 2351.351562 1905.410156 2351.351562 1893.839844 C 2351.351562 1882.367188 2355.363281 1872.539062 2363.449219 1864.386719 C 2371.5 1856.171875 2381.328125 1852.027344 2392.898438 1852.027344 L 2439.96875 1852.027344 L 2439.96875 1880.824219 L 2395.136719 1880.824219 C 2391.355469 1880.824219 2388.199219 1882.136719 2385.667969 1884.769531 C 2383.105469 1887.332031 2381.855469 1890.488281 2381.855469 1894.234375 C 2381.855469 1898.015625 2383.105469 1901.171875 2385.667969 1903.699219 C 2388.199219 1906.265625 2391.355469 1907.515625 2395.136719 1907.515625 Z M 2474.945312 1993.371094 L 2474.945312 1852.027344 L 2562.113281 1852.027344 L 2562.113281 1881.480469 L 2505.183594 1881.480469 L 2505.183594 1901.730469 L 2559.484375 1901.730469 L 2559.484375 1930.785156 L 2505.183594 1930.785156 L 2505.183594 1963.65625 L 2563.167969 1963.65625 L 2563.167969 1993.371094 Z M 2690.539062 1904.09375 C 2690.539062 1912.707031 2688.761719 1919.871094 2685.277344 1925.65625 C 2681.859375 1931.378906 2677.0625 1936.636719 2670.949219 1941.4375 C 2678.574219 1947.15625 2683.734375 1953.335938 2686.460938 1959.972656 C 2689.15625 1966.648438 2690.539062 1974.140625 2690.539062 1982.457031 L 2690.539062 1993.371094 L 2660.296875 1993.371094 L 2660.296875 1982.457031 C 2660.296875 1974.832031 2657.929688 1968.390625 2653.199219 1963.128906 C 2648.53125 1957.871094 2642.449219 1955.242188 2634.921875 1955.242188 L 2616.25 1955.242188 L 2616.25 1993.371094 L 2586.011719 1993.371094 L 2586.011719 1852.027344 L 2638.339844 1852.027344 C 2652.703125 1852.027344 2664.964844 1857.125 2675.15625 1867.28125 C 2685.410156 1877.46875 2690.539062 1889.730469 2690.539062 1904.09375 Z M 2659.640625 1904.09375 C 2659.640625 1897.355469 2657.273438 1891.671875 2652.539062 1887.003906 C 2647.871094 1882.269531 2642.1875 1879.902344 2635.449219 1879.902344 L 2616.25 1879.902344 L 2616.25 1928.15625 L 2635.449219 1928.15625 C 2642.023438 1928.15625 2647.675781 1925.789062 2652.410156 1921.054688 C 2657.207031 1916.324219 2659.640625 1910.667969 2659.640625 1904.09375 Z M 2812.945312 1852.027344 L 2751.019531 1995.738281 L 2688.960938 1852.027344 L 2721.171875 1852.027344 L 2751.019531 1929.996094 L 2780.863281 1852.027344 Z M 2827.769531 1993.371094 L 2827.769531 1852.027344 L 2858.011719 1852.027344 L 2858.011719 1993.371094 Z M 2977.394531 1954.976562 L 2977.394531 1990.082031 C 2967.929688 1994.027344 2958.363281 1996 2948.730469 1996 C 2928.648438 1996 2911.554688 1988.867188 2897.453125 1974.570312 C 2883.417969 1960.304688 2876.417969 1943.078125 2876.417969 1922.898438 C 2876.417969 1902.582031 2883.417969 1885.261719 2897.453125 1870.960938 C 2911.554688 1856.695312 2928.648438 1849.53125 2948.730469 1849.53125 C 2958.363281 1849.53125 2967.929688 1851.503906 2977.394531 1855.449219 L 2977.394531 1890.554688 C 2969.570312 1883.027344 2960.039062 1879.246094 2948.730469 1879.246094 C 2937.492188 1879.246094 2927.890625 1883.550781 2919.9375 1892.128906 C 2912.050781 1900.644531 2908.105469 1910.898438 2908.105469 1922.898438 C 2908.105469 1934.925781 2912.050781 1945.183594 2919.9375 1953.664062 C 2927.890625 1962.078125 2937.492188 1966.285156 2948.730469 1966.285156 C 2960.039062 1966.285156 2969.570312 1962.539062 2977.394531 1954.976562 Z M 2999.21875 1993.371094 L 2999.21875 1852.027344 L 3086.390625 1852.027344 L 3086.390625 1881.480469 L 3029.460938 1881.480469 L 3029.460938 1901.730469 L 3083.761719 1901.730469 L 3083.761719 1930.785156 L 3029.460938 1930.785156 L 3029.460938 1963.65625 L 3087.445312 1963.65625 L 3087.445312 1993.371094 Z M 3145.789062 1907.515625 L 3164.984375 1907.515625 C 3176.71875 1907.515625 3186.710938 1911.722656 3194.960938 1920.136719 C 3203.277344 1928.484375 3207.453125 1938.410156 3207.453125 1949.980469 C 3207.453125 1961.652344 3203.277344 1971.808594 3194.960938 1980.484375 C 3186.710938 1989.097656 3176.71875 1993.371094 3164.984375 1993.371094 L 3109.105469 1993.371094 L 3109.105469 1963.65625 L 3161.828125 1963.65625 C 3165.839844 1963.65625 3169.222656 1962.40625 3171.953125 1959.84375 C 3174.746094 1957.3125 3176.160156 1954.125 3176.160156 1950.246094 C 3176.160156 1946.300781 3174.746094 1943.078125 3171.953125 1940.515625 C 3169.222656 1937.886719 3165.839844 1936.570312 3161.828125 1936.570312 L 3143.550781 1936.570312 C 3131.984375 1936.570312 3122.15625 1932.363281 3114.101562 1923.949219 C 3106.015625 1915.46875 3102.003906 1905.410156 3102.003906 1893.839844 C 3102.003906 1882.367188 3106.015625 1872.539062 3114.101562 1864.386719 C 3122.15625 1856.171875 3131.984375 1852.027344 3143.550781 1852.027344 L 3190.621094 1852.027344 L 3190.621094 1880.824219 L 3145.789062 1880.824219 C 3142.007812 1880.824219 3138.851562 1882.136719 3136.320312 1884.769531 C 3133.757812 1887.332031 3132.507812 1890.488281 3132.507812 1894.234375 C 3132.507812 1898.015625 3133.757812 1901.171875 3136.320312 1903.699219 C 3138.851562 1906.265625 3142.007812 1907.515625 3145.789062 1907.515625 Z M 3204 2016.378906 L 3217.675781 1967.335938 L 3249.625 1967.335938 L 3221.09375 2016.378906 Z M 3315.464844 1993.371094 L 3315.464844 1852.027344 L 3345.703125 1852.027344 L 3345.703125 1965.101562 L 3399.085938 1965.101562 L 3399.085938 1993.371094 Z M 3417.457031 1993.371094 L 3417.457031 1852.027344 L 3447.699219 1852.027344 L 3447.699219 1965.101562 L 3501.078125 1965.101562 L 3501.078125 1993.371094 Z M 3600.414062 1954.976562 L 3600.414062 1990.082031 C 3590.945312 1994.027344 3581.382812 1996 3571.75 1996 C 3551.667969 1996 3534.574219 1988.867188 3520.472656 1974.570312 C 3506.4375 1960.304688 3499.4375 1943.078125 3499.4375 1922.898438 C 3499.4375 1902.582031 3506.4375 1885.261719 3520.472656 1870.960938 C 3534.574219 1856.695312 3551.667969 1849.53125 3571.75 1849.53125 C 3581.382812 1849.53125 3590.945312 1851.503906 3600.414062 1855.449219 L 3600.414062 1890.554688 C 3592.589844 1883.027344 3583.058594 1879.246094 3571.75 1879.246094 C 3560.507812 1879.246094 3550.910156 1883.550781 3542.957031 1892.128906 C 3535.066406 1900.644531 3531.125 1910.898438 3531.125 1922.898438 C 3531.125 1934.925781 3535.066406 1945.183594 3542.957031 1953.664062 C 3550.910156 1962.078125 3560.507812 1966.285156 3571.75 1966.285156 C 3583.058594 1966.285156 3592.589844 1962.539062 3600.414062 1954.976562 Z M 395.191406 1841.90625 "/>
<path style=" stroke:none;fill-rule:nonzero;fill:rgb(23.137255%,61.960787%,24.313726%);fill-opacity:1;" d="M 1397.402344 2041.023438 L 1409.023438 2018.082031 L 1421.761719 2018.082031 L 1403.289062 2052.085938 L 1403.289062 2073.757812 L 1391.566406 2073.757812 L 1391.566406 2052.492188 L 1373.089844 2018.082031 L 1385.878906 2018.082031 Z M 1477.679688 2045.84375 C 1477.679688 2055.054688 1475.398438 2062.136719 1470.828125 2067.109375 C 1466.261719 2072.058594 1459.714844 2074.519531 1451.1875 2074.519531 C 1442.660156 2074.519531 1436.113281 2072.058594 1431.546875 2067.109375 C 1426.976562 2062.136719 1424.695312 2055.03125 1424.695312 2045.792969 C 1424.695312 2036.53125 1426.976562 2029.449219 1431.546875 2024.578125 C 1436.140625 2019.679688 1442.722656 2017.21875 1451.289062 2017.21875 C 1459.839844 2017.21875 1466.375 2019.691406 1470.878906 2024.628906 C 1475.410156 2029.539062 1477.679688 2036.605469 1477.679688 2045.84375 Z M 1437.078125 2045.84375 C 1437.078125 2052.074219 1438.257812 2056.753906 1440.628906 2059.902344 C 1442.992188 2063.050781 1446.519531 2064.621094 1451.1875 2064.621094 C 1460.628906 2064.621094 1465.347656 2058.367188 1465.347656 2045.84375 C 1465.347656 2033.332031 1460.652344 2027.066406 1451.289062 2027.066406 C 1446.582031 2027.066406 1443.027344 2028.636719 1440.628906 2031.785156 C 1438.257812 2034.929688 1437.078125 2039.625 1437.078125 2045.84375 Z M 1534.550781 2018.082031 L 1534.550781 2054.117188 C 1534.550781 2058.214844 1533.613281 2061.816406 1531.757812 2064.925781 C 1529.933594 2068.011719 1527.265625 2070.382812 1523.789062 2072.03125 C 1520.300781 2073.695312 1516.191406 2074.519531 1511.457031 2074.519531 C 1504.3125 2074.519531 1498.769531 2072.691406 1494.808594 2069.039062 C 1490.851562 2065.359375 1488.871094 2060.332031 1488.871094 2053.964844 L 1488.871094 2018.082031 L 1500.597656 2018.082031 L 1500.597656 2052.1875 C 1500.597656 2056.449219 1501.457031 2059.597656 1503.183594 2061.628906 C 1504.910156 2063.632812 1507.765625 2064.621094 1511.761719 2064.621094 C 1515.621094 2064.621094 1518.410156 2063.632812 1520.136719 2061.628906 C 1521.886719 2059.597656 1522.777344 2056.425781 1522.777344 2052.085938 L 1522.777344 2018.082031 Z M 1559.976562 2042.796875 L 1563.785156 2042.796875 C 1567.503906 2042.796875 1570.242188 2042.1875 1572.007812 2040.972656 C 1573.796875 2039.726562 1574.695312 2037.761719 1574.695312 2035.082031 C 1574.695312 2032.445312 1573.78125 2030.566406 1571.957031 2029.449219 C 1570.152344 2028.332031 1567.351562 2027.773438 1563.53125 2027.773438 L 1559.976562 2027.773438 Z M 1559.976562 2052.390625 L 1559.976562 2073.757812 L 1548.152344 2073.757812 L 1548.152344 2018.082031 L 1564.394531 2018.082031 C 1571.929688 2018.082031 1577.511719 2019.476562 1581.140625 2022.242188 C 1584.796875 2024.984375 1586.625 2029.171875 1586.625 2034.777344 C 1586.625 2038.066406 1585.710938 2040.972656 1583.882812 2043.507812 C 1582.082031 2046.046875 1579.542969 2048.050781 1576.269531 2049.496094 C 1584.617188 2062.019531 1590.074219 2070.105469 1592.613281 2073.757812 L 1579.519531 2073.757812 L 1566.21875 2052.390625 Z M 1631.691406 2044.269531 L 1635.550781 2044.269531 C 1639.167969 2044.269531 1641.867188 2043.558594 1643.671875 2042.136719 C 1645.496094 2040.71875 1646.410156 2038.636719 1646.410156 2035.894531 C 1646.410156 2033.128906 1645.648438 2031.074219 1644.128906 2029.753906 C 1642.628906 2028.433594 1640.269531 2027.773438 1637.023438 2027.773438 L 1631.691406 2027.773438 Z M 1658.339844 2035.4375 C 1658.339844 2041.429688 1656.460938 2046.019531 1652.703125 2049.191406 C 1648.949219 2052.378906 1643.621094 2053.964844 1636.71875 2053.964844 L 1631.691406 2053.964844 L 1631.691406 2073.757812 L 1619.867188 2073.757812 L 1619.867188 2018.082031 L 1637.632812 2018.082031 C 1644.394531 2018.082031 1649.53125 2019.539062 1653.058594 2022.445312 C 1656.574219 2025.363281 1658.339844 2029.691406 1658.339844 2035.4375 Z M 1680.644531 2042.796875 L 1684.453125 2042.796875 C 1688.167969 2042.796875 1690.910156 2042.1875 1692.671875 2040.972656 C 1694.460938 2039.726562 1695.363281 2037.761719 1695.363281 2035.082031 C 1695.363281 2032.445312 1694.449219 2030.566406 1692.621094 2029.449219 C 1690.820312 2028.332031 1688.015625 2027.773438 1684.199219 2027.773438 L 1680.644531 2027.773438 Z M 1680.644531 2052.390625 L 1680.644531 2073.757812 L 1668.820312 2073.757812 L 1668.820312 2018.082031 L 1685.058594 2018.082031 C 1692.597656 2018.082031 1698.179688 2019.476562 1701.808594 2022.242188 C 1705.464844 2024.984375 1707.289062 2029.171875 1707.289062 2034.777344 C 1707.289062 2038.066406 1706.378906 2040.972656 1704.550781 2043.507812 C 1702.75 2046.046875 1700.210938 2048.050781 1696.9375 2049.496094 C 1705.285156 2062.019531 1710.742188 2070.105469 1713.28125 2073.757812 L 1700.183594 2073.757812 L 1686.886719 2052.390625 Z M 1770.785156 2045.84375 C 1770.785156 2055.054688 1768.5 2062.136719 1763.933594 2067.109375 C 1759.363281 2072.058594 1752.816406 2074.519531 1744.289062 2074.519531 C 1735.761719 2074.519531 1729.214844 2072.058594 1724.648438 2067.109375 C 1720.082031 2062.136719 1717.796875 2055.03125 1717.796875 2045.792969 C 1717.796875 2036.53125 1720.082031 2029.449219 1724.648438 2024.578125 C 1729.242188 2019.679688 1735.828125 2017.21875 1744.390625 2017.21875 C 1752.945312 2017.21875 1759.476562 2019.691406 1763.984375 2024.628906 C 1768.511719 2029.539062 1770.785156 2036.605469 1770.785156 2045.84375 Z M 1730.179688 2045.84375 C 1730.179688 2052.074219 1731.359375 2056.753906 1733.734375 2059.902344 C 1736.09375 2063.050781 1739.621094 2064.621094 1744.289062 2064.621094 C 1753.730469 2064.621094 1758.449219 2058.367188 1758.449219 2045.84375 C 1758.449219 2033.332031 1753.753906 2027.066406 1744.390625 2027.066406 C 1739.683594 2027.066406 1736.132812 2028.636719 1733.734375 2031.785156 C 1731.359375 2034.929688 1730.179688 2039.625 1730.179688 2045.84375 Z M 1794.15625 2044.269531 L 1798.011719 2044.269531 C 1801.628906 2044.269531 1804.332031 2043.558594 1806.132812 2042.136719 C 1807.960938 2040.71875 1808.875 2038.636719 1808.875 2035.894531 C 1808.875 2033.128906 1808.113281 2031.074219 1806.589844 2029.753906 C 1805.09375 2028.433594 1802.734375 2027.773438 1799.484375 2027.773438 L 1794.15625 2027.773438 Z M 1820.800781 2035.4375 C 1820.800781 2041.429688 1818.921875 2046.019531 1815.167969 2049.191406 C 1811.410156 2052.378906 1806.082031 2053.964844 1799.179688 2053.964844 L 1794.15625 2053.964844 L 1794.15625 2073.757812 L 1782.328125 2073.757812 L 1782.328125 2018.082031 L 1800.09375 2018.082031 C 1806.855469 2018.082031 1811.996094 2019.539062 1815.523438 2022.445312 C 1819.039062 2025.363281 1820.800781 2029.691406 1820.800781 2035.4375 Z M 1863.359375 2073.757812 L 1831.28125 2073.757812 L 1831.28125 2018.082031 L 1863.359375 2018.082031 L 1863.359375 2027.773438 L 1843.109375 2027.773438 L 1843.109375 2040.007812 L 1861.9375 2040.007812 L 1861.9375 2049.648438 L 1843.109375 2049.648438 L 1843.109375 2064.011719 L 1863.359375 2064.011719 Z M 1886.769531 2042.796875 L 1890.574219 2042.796875 C 1894.292969 2042.796875 1897.035156 2042.1875 1898.796875 2040.972656 C 1900.585938 2039.726562 1901.488281 2037.761719 1901.488281 2035.082031 C 1901.488281 2032.445312 1900.574219 2030.566406 1898.746094 2029.449219 C 1896.945312 2028.332031 1894.140625 2027.773438 1890.320312 2027.773438 L 1886.769531 2027.773438 Z M 1886.769531 2052.390625 L 1886.769531 2073.757812 L 1874.941406 2073.757812 L 1874.941406 2018.082031 L 1891.183594 2018.082031 C 1898.722656 2018.082031 1904.304688 2019.476562 1907.933594 2022.242188 C 1911.585938 2024.984375 1913.414062 2029.171875 1913.414062 2034.777344 C 1913.414062 2038.066406 1912.5 2040.972656 1910.671875 2043.507812 C 1908.871094 2046.046875 1906.335938 2048.050781 1903.058594 2049.496094 C 1911.410156 2062.019531 1916.867188 2070.105469 1919.402344 2073.757812 L 1906.308594 2073.757812 L 1893.011719 2052.390625 Z M 1947.875 2073.757812 L 1936.101562 2073.757812 L 1936.101562 2027.925781 L 1920.976562 2027.925781 L 1920.976562 2018.082031 L 1963 2018.082031 L 1963 2027.925781 L 1947.875 2027.925781 Z M 1988.859375 2041.023438 L 2000.480469 2018.082031 L 2013.222656 2018.082031 L 1994.746094 2052.085938 L 1994.746094 2073.757812 L 1983.023438 2073.757812 L 1983.023438 2052.492188 L 1964.546875 2018.082031 L 1977.339844 2018.082031 Z M 2025.972656 2065.585938 C 2024.652344 2070.699219 2022.421875 2076.765625 2019.273438 2083.808594 L 2010.898438 2083.808594 C 2012.550781 2077.03125 2013.84375 2070.660156 2014.757812 2064.671875 L 2025.414062 2064.671875 Z M 2108.878906 2045.84375 C 2108.878906 2055.054688 2106.59375 2062.136719 2102.027344 2067.109375 C 2097.460938 2072.058594 2090.914062 2074.519531 2082.386719 2074.519531 C 2073.859375 2074.519531 2067.3125 2072.058594 2062.746094 2067.109375 C 2058.175781 2062.136719 2055.890625 2055.03125 2055.890625 2045.792969 C 2055.890625 2036.53125 2058.175781 2029.449219 2062.746094 2024.578125 C 2067.335938 2019.679688 2073.921875 2017.21875 2082.488281 2017.21875 C 2091.039062 2017.21875 2097.574219 2019.691406 2102.078125 2024.628906 C 2106.609375 2029.539062 2108.878906 2036.605469 2108.878906 2045.84375 Z M 2068.277344 2045.84375 C 2068.277344 2052.074219 2069.457031 2056.753906 2071.828125 2059.902344 C 2074.1875 2063.050781 2077.714844 2064.621094 2082.386719 2064.621094 C 2091.824219 2064.621094 2096.546875 2058.367188 2096.546875 2045.84375 C 2096.546875 2033.332031 2091.851562 2027.066406 2082.488281 2027.066406 C 2077.78125 2027.066406 2074.226562 2028.636719 2071.828125 2031.785156 C 2069.457031 2034.929688 2068.277344 2039.625 2068.277344 2045.84375 Z M 2165.75 2018.082031 L 2165.75 2054.117188 C 2165.75 2058.214844 2164.808594 2061.816406 2162.957031 2064.925781 C 2161.128906 2068.011719 2158.464844 2070.382812 2154.988281 2072.03125 C 2151.5 2073.695312 2147.390625 2074.519531 2142.65625 2074.519531 C 2135.511719 2074.519531 2129.96875 2072.691406 2126.007812 2069.039062 C 2122.050781 2065.359375 2120.070312 2060.332031 2120.070312 2053.964844 L 2120.070312 2018.082031 L 2131.792969 2018.082031 L 2131.792969 2052.1875 C 2131.792969 2056.449219 2132.65625 2059.597656 2134.382812 2061.628906 C 2136.109375 2063.632812 2138.964844 2064.621094 2142.960938 2064.621094 C 2146.816406 2064.621094 2149.609375 2063.632812 2151.335938 2061.628906 C 2153.085938 2059.597656 2153.972656 2056.425781 2153.972656 2052.085938 L 2153.972656 2018.082031 Z M 2191.175781 2042.796875 L 2194.984375 2042.796875 C 2198.699219 2042.796875 2201.441406 2042.1875 2203.207031 2040.972656 C 2204.996094 2039.726562 2205.894531 2037.761719 2205.894531 2035.082031 C 2205.894531 2032.445312 2204.980469 2030.566406 2203.15625 2029.449219 C 2201.351562 2028.332031 2198.546875 2027.773438 2194.730469 2027.773438 L 2191.175781 2027.773438 Z M 2191.175781 2052.390625 L 2191.175781 2073.757812 L 2179.351562 2073.757812 L 2179.351562 2018.082031 L 2195.59375 2018.082031 C 2203.128906 2018.082031 2208.710938 2019.476562 2212.339844 2022.242188 C 2215.996094 2024.984375 2217.820312 2029.171875 2217.820312 2034.777344 C 2217.820312 2038.066406 2216.910156 2040.972656 2215.082031 2043.507812 C 2213.28125 2046.046875 2210.742188 2048.050781 2207.46875 2049.496094 C 2215.816406 2062.019531 2221.273438 2070.105469 2223.8125 2073.757812 L 2210.714844 2073.757812 L 2197.417969 2052.390625 Z M 2262.890625 2044.269531 L 2266.75 2044.269531 C 2270.363281 2044.269531 2273.066406 2043.558594 2274.871094 2042.136719 C 2276.695312 2040.71875 2277.609375 2038.636719 2277.609375 2035.894531 C 2277.609375 2033.128906 2276.847656 2031.074219 2275.328125 2029.753906 C 2273.828125 2028.433594 2271.46875 2027.773438 2268.21875 2027.773438 L 2262.890625 2027.773438 Z M 2289.539062 2035.4375 C 2289.539062 2041.429688 2287.660156 2046.019531 2283.902344 2049.191406 C 2280.148438 2052.378906 2274.820312 2053.964844 2267.917969 2053.964844 L 2262.890625 2053.964844 L 2262.890625 2073.757812 L 2251.066406 2073.757812 L 2251.066406 2018.082031 L 2268.828125 2018.082031 C 2275.59375 2018.082031 2280.730469 2019.539062 2284.257812 2022.445312 C 2287.773438 2025.363281 2289.539062 2029.691406 2289.539062 2035.4375 Z M 2311.84375 2042.796875 L 2315.648438 2042.796875 C 2319.367188 2042.796875 2322.109375 2042.1875 2323.871094 2040.972656 C 2325.660156 2039.726562 2326.5625 2037.761719 2326.5625 2035.082031 C 2326.5625 2032.445312 2325.648438 2030.566406 2323.820312 2029.449219 C 2322.019531 2028.332031 2319.214844 2027.773438 2315.394531 2027.773438 L 2311.84375 2027.773438 Z M 2311.84375 2052.390625 L 2311.84375 2073.757812 L 2300.019531 2073.757812 L 2300.019531 2018.082031 L 2316.257812 2018.082031 C 2323.796875 2018.082031 2329.378906 2019.476562 2333.007812 2022.242188 C 2336.660156 2024.984375 2338.488281 2029.171875 2338.488281 2034.777344 C 2338.488281 2038.066406 2337.574219 2040.972656 2335.75 2043.507812 C 2333.945312 2046.046875 2331.410156 2048.050781 2328.136719 2049.496094 C 2336.484375 2062.019531 2341.941406 2070.105469 2344.476562 2073.757812 L 2331.382812 2073.757812 L 2318.085938 2052.390625 Z M 2351.480469 2073.757812 L 2351.480469 2018.082031 L 2363.308594 2018.082031 L 2363.308594 2073.757812 Z M 2427.789062 2045.84375 C 2427.789062 2055.054688 2425.507812 2062.136719 2420.9375 2067.109375 C 2416.371094 2072.058594 2409.824219 2074.519531 2401.296875 2074.519531 C 2392.769531 2074.519531 2386.222656 2072.058594 2381.65625 2067.109375 C 2377.085938 2062.136719 2374.804688 2055.03125 2374.804688 2045.792969 C 2374.804688 2036.53125 2377.085938 2029.449219 2381.65625 2024.578125 C 2386.25 2019.679688 2392.832031 2017.21875 2401.398438 2017.21875 C 2409.949219 2017.21875 2416.484375 2019.691406 2420.988281 2024.628906 C 2425.519531 2029.539062 2427.789062 2036.605469 2427.789062 2045.84375 Z M 2387.1875 2045.84375 C 2387.1875 2052.074219 2388.367188 2056.753906 2390.738281 2059.902344 C 2393.101562 2063.050781 2396.628906 2064.621094 2401.296875 2064.621094 C 2410.738281 2064.621094 2415.457031 2058.367188 2415.457031 2045.84375 C 2415.457031 2033.332031 2410.761719 2027.066406 2401.398438 2027.066406 C 2396.691406 2027.066406 2393.136719 2028.636719 2390.738281 2031.785156 C 2388.367188 2034.929688 2387.1875 2039.625 2387.1875 2045.84375 Z M 2451.164062 2042.796875 L 2454.96875 2042.796875 C 2458.6875 2042.796875 2461.425781 2042.1875 2463.191406 2040.972656 C 2464.980469 2039.726562 2465.882812 2037.761719 2465.882812 2035.082031 C 2465.882812 2032.445312 2464.96875 2030.566406 2463.140625 2029.449219 C 2461.339844 2028.332031 2458.535156 2027.773438 2454.714844 2027.773438 L 2451.164062 2027.773438 Z M 2451.164062 2052.390625 L 2451.164062 2073.757812 L 2439.335938 2073.757812 L 2439.335938 2018.082031 L 2455.578125 2018.082031 C 2463.113281 2018.082031 2468.699219 2019.476562 2472.328125 2022.242188 C 2475.980469 2024.984375 2477.808594 2029.171875 2477.808594 2034.777344 C 2477.808594 2038.066406 2476.894531 2040.972656 2475.066406 2043.507812 C 2473.265625 2046.046875 2470.726562 2048.050781 2467.453125 2049.496094 C 2475.804688 2062.019531 2481.257812 2070.105469 2483.796875 2073.757812 L 2470.703125 2073.757812 L 2457.40625 2052.390625 Z M 2490.800781 2073.757812 L 2490.800781 2018.082031 L 2502.625 2018.082031 L 2502.625 2073.757812 Z M 2538.078125 2073.757812 L 2526.304688 2073.757812 L 2526.304688 2027.925781 L 2511.179688 2027.925781 L 2511.179688 2018.082031 L 2553.203125 2018.082031 L 2553.203125 2027.925781 L 2538.078125 2027.925781 Z M 2579.0625 2041.023438 L 2590.683594 2018.082031 L 2603.421875 2018.082031 L 2584.949219 2052.085938 L 2584.949219 2073.757812 L 2573.226562 2073.757812 L 2573.226562 2052.492188 L 2554.75 2018.082031 L 2567.539062 2018.082031 Z M 2619.234375 2055.285156 L 2609.945312 2055.285156 L 2608.015625 2018.082031 L 2621.160156 2018.082031 Z M 2607.863281 2068.328125 C 2607.863281 2066.195312 2608.421875 2064.597656 2609.539062 2063.503906 C 2610.679688 2062.390625 2612.355469 2061.832031 2614.5625 2061.832031 C 2616.65625 2061.832031 2618.28125 2062.390625 2619.4375 2063.503906 C 2620.578125 2064.621094 2621.160156 2066.234375 2621.160156 2068.328125 C 2621.160156 2070.332031 2620.566406 2071.90625 2619.386719 2073.046875 C 2618.230469 2074.1875 2616.621094 2074.773438 2614.5625 2074.773438 C 2612.433594 2074.773438 2610.769531 2074.214844 2609.589844 2073.097656 C 2608.433594 2071.957031 2607.863281 2070.359375 2607.863281 2068.328125 Z M 1373.089844 1990.433594 "/>
</g>
</svg>